<svg width="402" height="97" viewBox="0 0 402 97" fill="none" xmlns="http://www.w3.org/2000/svg">
<path d="M54.9091 25.1818C54.3939 20 52.1061 15.8788 48.0455 12.8182C43.9849 9.75757 38.8788 8.22727 32.7273 8.22727C28.3939 8.22727 24.5758 8.9697 21.2727 10.4545C18 11.9394 15.4242 14 13.5455 16.6364C11.697 19.2424 10.7727 22.2121 10.7727 25.5455C10.7727 28 11.303 30.1515 12.3636 32C13.4242 33.8485 14.8485 35.4394 16.6364 36.7727C18.4545 38.0758 20.4545 39.197 22.6364 40.1364C24.8485 41.0758 27.0758 41.8636 29.3182 42.5L39.1364 45.3182C42.1061 46.1364 45.0758 47.1818 48.0455 48.4545C51.0152 49.7273 53.7273 51.3333 56.1818 53.2727C58.6667 55.1818 60.6515 57.5303 62.1364 60.3182C63.6515 63.0758 64.4091 66.3939 64.4091 70.2727C64.4091 75.2424 63.1212 79.7121 60.5455 83.6818C57.9697 87.6515 54.2727 90.803 49.4545 93.1364C44.6364 95.4394 38.8636 96.5909 32.1364 96.5909C25.803 96.5909 20.303 95.5455 15.6364 93.4545C10.9697 91.3333 7.30303 88.4091 4.63636 84.6818C1.9697 80.9545 0.469697 76.6364 0.136364 71.7273H8.86364C9.16667 75.3939 10.3788 78.5 12.5 81.0455C14.6212 83.5909 17.3788 85.5303 20.7727 86.8636C24.1667 88.1667 27.9545 88.8182 32.1364 88.8182C36.7727 88.8182 40.8939 88.0455 44.5 86.5C48.1364 84.9242 50.9849 82.7424 53.0455 79.9545C55.1364 77.1364 56.1818 73.8636 56.1818 70.1364C56.1818 66.9848 55.3636 64.3485 53.7273 62.2273C52.0909 60.0758 49.803 58.2727 46.8636 56.8182C43.9545 55.3636 40.5758 54.0758 36.7273 52.9545L25.5909 49.6818C18.2879 47.5 12.6212 44.4848 8.59091 40.6364C4.56061 36.7879 2.54545 31.8788 2.54545 25.9091C2.54545 20.9091 3.87879 16.5151 6.54545 12.7273C9.24242 8.90909 12.8788 5.93939 17.4545 3.81818C22.0606 1.66666 27.2273 0.590904 32.9545 0.590904C38.7424 0.590904 43.8636 1.65151 48.3182 3.77273C52.7727 5.89394 56.303 8.81818 58.9091 12.5454C61.5455 16.2424 62.9545 20.4545 63.1364 25.1818H54.9091ZM102.682 96.5909C98.4697 96.5909 94.6212 95.7727 91.1364 94.1364C87.6515 92.4697 84.8788 90.0758 82.8182 86.9545C80.7576 83.803 79.7273 79.9848 79.7273 75.5C79.7273 72.0455 80.3788 69.1364 81.6818 66.7727C82.9848 64.4091 84.8333 62.4697 87.2273 60.9545C89.6212 59.4394 92.4545 58.2424 95.7273 57.3636C99 56.4848 102.606 55.803 106.545 55.3182C110.455 54.8333 113.758 54.4091 116.455 54.0455C119.182 53.6818 121.258 53.1061 122.682 52.3182C124.106 51.5303 124.818 50.2576 124.818 48.5V46.8636C124.818 42.1061 123.394 38.3636 120.545 35.6364C117.727 32.8788 113.667 31.5 108.364 31.5C103.333 31.5 99.2273 32.6061 96.0455 34.8182C92.8939 37.0303 90.6818 39.6364 89.4091 42.6364L81.7273 39.8636C83.303 36.0455 85.4848 33 88.2727 30.7273C91.0606 28.4242 94.1818 26.7727 97.6364 25.7727C101.091 24.7424 104.591 24.2273 108.136 24.2273C110.803 24.2273 113.576 24.5758 116.455 25.2727C119.364 25.9697 122.061 27.1818 124.545 28.9091C127.03 30.6061 129.045 32.9848 130.591 36.0455C132.136 39.0758 132.909 42.9242 132.909 47.5909V95H124.818V83.9545H124.318C123.348 86.0152 121.909 88.0152 120 89.9545C118.091 91.8939 115.697 93.4848 112.818 94.7273C109.939 95.9697 106.561 96.5909 102.682 96.5909ZM103.773 89.1818C108.076 89.1818 111.803 88.2273 114.955 86.3182C118.106 84.4091 120.53 81.8788 122.227 78.7273C123.955 75.5455 124.818 72.0455 124.818 68.2273V58.1364C124.212 58.7121 123.197 59.2273 121.773 59.6818C120.379 60.1364 118.758 60.5455 116.909 60.9091C115.091 61.2424 113.273 61.5303 111.455 61.7727C109.636 62.0152 108 62.2273 106.545 62.4091C102.606 62.8939 99.2424 63.6515 96.4545 64.6818C93.6667 65.7121 91.5303 67.1364 90.0455 68.9545C88.5606 70.7424 87.8182 73.0455 87.8182 75.8636C87.8182 80.1061 89.3333 83.3939 92.3636 85.7273C95.3939 88.0303 99.197 89.1818 103.773 89.1818ZM154.432 95V25.1818H162.295V35.9091H162.886C164.28 32.3939 166.705 29.5606 170.159 27.4091C173.644 25.2273 177.583 24.1364 181.977 24.1364C182.644 24.1364 183.386 24.1515 184.205 24.1818C185.023 24.2121 185.705 24.2424 186.25 24.2727V32.5C185.886 32.4394 185.25 32.3485 184.341 32.2273C183.432 32.1061 182.447 32.0455 181.386 32.0455C177.75 32.0455 174.508 32.8182 171.659 34.3636C168.841 35.8788 166.614 37.9848 164.977 40.6818C163.341 43.3788 162.523 46.4545 162.523 49.9091V95H154.432Z" fill="#191681"/>
<path d="M274.239 1.90909V95H265.966L210.966 17.0455H210.239V95H201.739V1.90909H209.966L265.148 79.9545H265.875V1.90909H274.239ZM325.534 96.4545C319.019 96.4545 313.383 94.9394 308.625 91.9091C303.867 88.8485 300.186 84.6212 297.58 79.2273C295.004 73.803 293.716 67.5606 293.716 60.5C293.716 53.4697 295.004 47.2273 297.58 41.7727C300.186 36.2879 303.777 32 308.352 28.9091C312.958 25.7879 318.277 24.2273 324.307 24.2273C328.095 24.2273 331.746 24.9242 335.261 26.3182C338.777 27.6818 341.928 29.7879 344.716 32.6364C347.534 35.4545 349.761 39.0152 351.398 43.3182C353.034 47.5909 353.852 52.6515 353.852 58.5V62.5H299.307V55.3636H345.58C345.58 50.8788 344.67 46.8485 342.852 43.2727C341.064 39.6667 338.564 36.8182 335.352 34.7273C332.17 32.6364 328.489 31.5909 324.307 31.5909C319.883 31.5909 315.989 32.7727 312.625 35.1364C309.261 37.5 306.625 40.6212 304.716 44.5C302.837 48.3788 301.883 52.6212 301.852 57.2273V61.5C301.852 67.0455 302.807 71.8939 304.716 76.0455C306.655 80.1667 309.398 83.3636 312.943 85.6364C316.489 87.9091 320.686 89.0455 325.534 89.0455C328.837 89.0455 331.731 88.5303 334.216 87.5C336.731 86.4697 338.837 85.0909 340.534 83.3636C342.261 81.6061 343.564 79.6818 344.443 77.5909L352.125 80.0909C351.064 83.0303 349.322 85.7424 346.898 88.2273C344.504 90.7121 341.504 92.7121 337.898 94.2273C334.322 95.7121 330.201 96.4545 325.534 96.4545ZM399.182 25.1818V32.2273H365.864V25.1818H399.182ZM376.273 8.45454H384.409V76.7727C384.409 79.6818 384.909 81.9697 385.909 83.6364C386.909 85.2727 388.212 86.4394 389.818 87.1364C391.424 87.803 393.136 88.1364 394.955 88.1364C396.015 88.1364 396.924 88.0758 397.682 87.9545C398.439 87.803 399.106 87.6515 399.682 87.5L401.409 94.8182C400.621 95.1212 399.652 95.3939 398.5 95.6364C397.348 95.9091 395.924 96.0455 394.227 96.0455C391.258 96.0455 388.394 95.3939 385.636 94.0909C382.909 92.7879 380.667 90.8485 378.909 88.2727C377.152 85.697 376.273 82.5 376.273 78.6818V8.45454Z" fill="#AD2626"/>
</svg>
